<svg xmlns="http://www.w3.org/2000/svg" xmlns:xlink="http://www.w3.org/1999/xlink" width="475.513" height="360.879" viewBox="0 0 475.513 360.879"><defs><style>.a,.w{fill:#e31836;}.a,.f{opacity:0.1;}.b{fill:#3a3768;}.c{fill:#d48a9b;}.d{opacity:0.05;}.e{fill:#efc6cd;}.g{fill:#fff;}.h{fill:#d3dae1;}.i{fill:url(#a);}.j{fill:#585b8a;}.k{opacity:0.2;}.l{fill:#636992;}.m{fill:#ffd6d6;}.n{fill:#dce6f2;}.o{fill:#565988;}.p{fill:#505484;}.q{fill:#575988;}.r{fill:#d28690;}.s{fill:#575989;}.t{fill:#353045;}.u{fill:#f0f3f7;}.v{fill:#663d5c;}.x{opacity:0.3;}.y{opacity:0.15;}.z{fill:#ffd037;}.aa{fill:#65617d;}.ab{fill:#9d9cb5;}.ac{fill:#4b4770;}.ad{fill:#d4dfec;}</style><linearGradient id="a" x1="0.5" y1="1" x2="0.5" gradientUnits="objectBoundingBox"><stop offset="0" stop-color="gray" stop-opacity="0.251"/><stop offset="0.54" stop-color="gray" stop-opacity="0.122"/><stop offset="1" stop-color="gray" stop-opacity="0.102"/></linearGradient></defs><path class="a" d="M562.5,143.665c-.083.388-.161.775-.253,1.159a124.594,124.594,0,0,1-14.469,37.53c-.231.388-.462.775-.7,1.163A107.851,107.851,0,0,1,530.775,204.1a49.449,49.449,0,0,1-11.716,9c-6.285,3.284-13.632,4.617-20.854,5.706-7.5,1.137-15.1,2.086-22.687,3.11q-4.042.536-8.036,1.137c-7.326,1.084-14.6,2.339-21.7,4a127.212,127.212,0,0,0-25.318,8.519q-.962.436-1.9.923c-.627.314-1.259.632-1.877.954s-1.228.645-1.834.976c-.314.17-.627.34-.936.518s-.614.335-.915.51c-.906.505-1.794,1.024-2.683,1.546l-.035.022c-.588.344-1.167.7-1.742,1.05-3.284,1.995-6.5,4.077-9.713,6.172l-2.021,1.307-3.132,2.025c-.61.4-1.233.793-1.847,1.185-.436.287-.871.575-1.346.871-2.282,1.437-4.595,2.848-6.969,4.194-.562.322-1.128.645-1.7.958a96.533,96.533,0,0,1-14.991,6.76l-.07.026a68.387,68.387,0,0,1-7.962,2.247c-1.555.34-3.114.618-4.691.832a50.287,50.287,0,0,1-12.718.179c-8.306-.963-16.089-4.151-24.39-5.226-17.091-2.178-33.689,4.839-49.76,10.335q-5.928,2.025-11.943,3.794c-2.665.788-5.34,1.533-8.036,2.252a302.369,302.369,0,0,1-50.392,8.837,141.926,141.926,0,0,1-21.407.475,78.613,78.613,0,0,1-8.031-.871c-9.016-1.394-17.422-4.316-24.207-9.669a47.274,47.274,0,0,1-12.561-16.115,70.322,70.322,0,0,1-6.494-19.4c-.166-.919-.314-1.842-.436-2.766q-.327-2.369-.488-4.765a68.2,68.2,0,0,1,3-25.2c2.875-9.111,7.665-17.857,9.774-27.038q.131-.584.248-1.163a40.25,40.25,0,0,0,.64-4.22c1.076-11.28-3.049-22.278-6.285-33.31-.113-.383-.226-.771-.335-1.159q-.523-1.838-1-3.672c-3-11.664-3.828-24.151-1.159-35.793.083-.388.183-.775.279-1.159a52.4,52.4,0,0,1,9.852-20.179c5-6.272,11.564-11.494,18.576-16.08q5.126-3.354,10.6-6.267,3.92-2.091,8.031-3.959a158.168,158.168,0,0,1,71.825-13.828c1.307.057,2.613.126,3.92.222s2.735.209,4.1.335c15.967,1.551,31.5,5.292,46.929,9.382,5.17,1.372,10.331,2.779,15.488,4.159,2.3.61,4.586,1.22,6.881,1.812,11.241,2.905,22.648,5.536,34.2,7.5q4.011.693,8.031,1.263a230.055,230.055,0,0,0,28.088,2.382q5.483.109,10.971-.1,2.77-.1,5.544-.3c19.1-1.346,37.557-5.849,56.045-10.057q4.011-.915,8.036-1.8c3.519-.775,7.038-1.524,10.575-2.217,22.008-4.325,41.624-1.838,62.086,7.086,4.652,2.025,9.3,4.473,12.147,8.275s3.563,8.471,4.094,12.979c.753,6.42,1.246,12.922,1.433,19.46,0,.383,0,.771.026,1.159A174.672,174.672,0,0,1,562.5,143.665Z" transform="translate(-93.041 -39.566)"/><path class="a" d="M423.051,182.6h-1.437v1.163h1.629Zm-16.3,0a.073.073,0,0,0,0,.031c-.039.318-.083.636-.126.958v.174h12.456v-.07l.871-1.093Zm-33.384,0v-37.53h14.329c-.152-.1-.309-.2-.47-.3l-.209-.135-.27-.165c-.157-.091-.314-.183-.479-.27s-.266-.148-.405-.222l-.1-.052h-12.4V141.85l-.335.131-.353.165h-.026l-.074.039-.222.118-.222.118c-.218.118-.436.248-.653.383l-.209.139-.436.279c-.562.375-1.115.767-1.686,1.132-.144.091-.287.183-.436.266-.309.183-.627.357-.954.514a3.639,3.639,0,0,1-.436.187l-.235.091-.218.074h0a10.2,10.2,0,0,1-1.568.409v36.69H343.818c0,.044.031.078.044.122.118.348.235.692.348,1.041h21.124v40.226h.327l.379.022.684.039,1.093.131.5.048.544.057h.083l.963.118.2.026.466.065.666.1h0l1.6-.07h0l.218.039a1.515,1.515,0,0,1,.27.044V183.758h33.249v-.174c.044-.322.087-.64.126-.958a.076.076,0,0,1,0-.031Zm49.686,0h-1.437v1.163h1.629Zm-17.2,0c-.052.388-.1.775-.152,1.163h13.889l.945-1.163Zm-32.487,0v-37.53h14.329c-.152-.1-.309-.2-.47-.3l-.209-.135-.27-.165c-.157-.091-.314-.183-.479-.27s-.266-.148-.405-.222l-.1-.052h-12.4V141.85l-.335.131-.353.165h-.026l-.074.039-.222.118-.222.118c-.218.118-.436.248-.653.383l-.209.139-.436.279c-.562.375-1.115.767-1.686,1.132-.144.091-.287.183-.436.266-.309.183-.627.357-.954.514a3.638,3.638,0,0,1-.436.187l-.235.091-.218.074h0a10.2,10.2,0,0,1-1.568.409v36.69H343.818c0,.044.031.078.044.122.118.344.24.692.353,1.041h21.119v40.222h.327l.379.022.684.039,1.093.135.5.048.544.057h.083l.963.118.2.026.466.065.666.1h0l1.6-.07h0l.218.039a1.515,1.515,0,0,1,.27.044V183.758h32.378c.052-.388.1-.775.152-1.163Zm108.684-78.153H572.41c0-.388,0-.775-.026-1.159H482.049V57.717q-4.024.871-8.036,1.8v43.763H375.738l-.248-.222.375-.331h0l36.555-32.848q-5.488.209-10.971.1L373.36,95.213V67.6q-4.024-.571-8.031-1.263v27.6L324.262,57.029c-5.157-1.381-10.318-2.787-15.488-4.159l55.849,50.192-.248.222H261.849V43.527q-2.051-.192-4.1-.335c-1.307-.1-2.613-.166-3.92-.222v60.313H181.989V56.8q-4.068,1.864-8.031,3.959v42.526H134.929c-.1.383-.2.771-.279,1.159h39.307v39.464H136.81c.109.388.222.775.335,1.159h36.812V182.6H142.79q-.118.579-.248,1.163h31.415V288.692c2.613.405,5.318.688,8.031.871V183.758h71.825v96.485c2.7-.719,5.37-1.463,8.036-2.252V183.758H365.333v84.3a68.381,68.381,0,0,0,7.962-2.247l.07-.026V183.758H474.013V223.3q4.007-.588,8.036-1.128v-38.41h71.568c.235-.388.466-.775.7-1.163H482.049v-37.53h86.733c.091-.383.17-.771.253-1.159H482.049Zm-300.06,0h71.825v39.464H181.989Zm0,78.153v-37.53h71.825V182.6Zm79.86-78.153H365.333v39.464H261.849Zm0,78.153v-37.53H365.333V182.6Zm212.164,0H373.365v-37.53H474.013Zm0-38.689H373.365V105.5l1.411-1.058h99.238ZM406.749,182.6a.073.073,0,0,0,0,.031c-.039.318-.083.636-.126.958v.174h12.456v-.07l.871-1.093Zm16.3,0h-1.437v1.163h1.629Zm-49.686,0v-37.53h14.329c-.152-.1-.309-.2-.47-.3l-.209-.135-.27-.165c-.157-.091-.314-.183-.479-.27s-.266-.148-.405-.222l-.1-.052h-12.4V141.85l-.335.131-.353.165h-.026l-.074.039-.222.118-.222.118c-.218.118-.436.248-.653.383l-.209.139-.436.279c-.562.375-1.115.767-1.686,1.132-.144.091-.287.183-.436.266-.309.183-.627.357-.954.514a3.639,3.639,0,0,1-.436.187l-.235.091-.218.074h0a10.2,10.2,0,0,1-1.568.409v36.69H343.818c0,.044.031.078.044.122.118.348.235.692.348,1.041h21.124v40.226h.327l.379.022.684.039,1.093.131.5.048.544.057h.083l.963.118.2.026.466.065.666.1h0l1.6-.07h0l.218.039a1.515,1.515,0,0,1,.27.044V183.758h33.249v-.174c.044-.322.087-.64.126-.958a.076.076,0,0,1,0-.031Z" transform="translate(-99.572 -39.808)"/><path class="a" d="M319.187,118.529h.623a1.263,1.263,0,0,1-.762-1.015h0c0-.8,1.2-1.455,2.661-1.455h18.624c1.463,0,2.657.653,2.657,1.455h0c0,.8-1.193,1.455-2.657,1.455h-.623a1.25,1.25,0,0,1,.762,1.01c0,.684-.871,1.259-2.034,1.411H343.8c1.459,0,2.657.653,2.657,1.455s-1.2,1.455-2.657,1.455H325.171c-1.459,0-2.657-.658-2.657-1.455,0-.684.871-1.254,2.034-1.411h-5.361c-1.463,0-2.657-.653-2.657-1.455S317.723,118.529,319.187,118.529Z" transform="translate(-202.236 -81.064)"/><path class="a" d="M782.627,150.3h.623a1.263,1.263,0,0,1-.758-1.015h0c0-.8,1.193-1.455,2.657-1.455h18.624c1.463,0,2.661.653,2.661,1.455h0c0,.8-1.2,1.45-2.661,1.45h-.619a1.263,1.263,0,0,1,.758,1.015c0,.684-.871,1.259-2.034,1.411h5.361c1.463,0,2.657.653,2.657,1.455s-1.193,1.455-2.657,1.455H788.615c-1.463,0-2.661-.658-2.661-1.455,0-.684.871-1.259,2.034-1.411h-5.361c-1.459,0-2.657-.653-2.657-1.455S781.168,150.3,782.627,150.3Z" transform="translate(-463.83 -98.997)"/><path class="a" d="M253.551,286.259h.618a1.259,1.259,0,0,1-.758-1.015h0c0-.8,1.2-1.455,2.657-1.455H274.7c1.459,0,2.657.658,2.657,1.455h0c0,.8-1.2,1.455-2.657,1.455h-.623a1.246,1.246,0,0,1,.758,1.01c0,.684-.871,1.259-2.034,1.411h5.362c1.463,0,2.661.658,2.661,1.455s-1.2,1.455-2.661,1.455H259.553c-1.463,0-2.657-.653-2.657-1.455,0-.679.871-1.254,2.034-1.411h-5.379c-1.463,0-2.661-.653-2.661-1.455S252.105,286.259,253.551,286.259Z" transform="translate(-165.185 -175.741)"/><ellipse class="a" cx="28.293" cy="93.105" rx="28.293" ry="93.105" transform="translate(250.936 256.16) rotate(-78.45)"/><path class="b" d="M828.56,391.815s4.952-24.307,23.859-22.056c0,0,13.066.9,15.753,9.451v18.907Z" transform="translate(-491.257 -224.184)"/><path class="c" d="M765.973,387.469,597.607,373.51,576,378.013l1.35,30.161,1.472.179,1.677,45.292,165.213,29.708L763.273,468.5V419.4l2.247-1.32Z" transform="translate(-325.13 -210.832)"/><path class="d" d="M988.191,405.56l-.453,30.61-18.232,8.554-.226-31.964Z" transform="translate(-547.121 -228.923)"/><path class="d" d="M983.514,478.94l.222,48.171L966.18,541.967l1.128-55.823Z" transform="translate(-545.371 -270.343)"/><path class="d" d="M582.836,455.663l168.153,20.518.087-3.894L582.71,454.13Z" transform="translate(-328.917 -256.339)"/><path class="d" d="M984.389,480.708V478.94l-16.659,7.352v3.9Z" transform="translate(-546.246 -270.343)"/><path class="e" d="M575.48,378.013l21.607-4.5,168.366,13.959-18.907,7.2Z" transform="translate(-324.836 -210.832)"/><path class="f" d="M954.4,407.55l8.262.54-13.693,4.1-6.973-.5Z" transform="translate(-531.722 -230.046)"/><path class="g" d="M954.4,406.72l8.262.54-13.693,4.1L942,410.858Z" transform="translate(-531.722 -229.578)"/><path class="h" d="M1022.32,444.508c.327-.139.671.126,1.019.192.2.039.405,0,.605.039.405.052.806.322,1.193.187" transform="translate(-600.627 -266.438)"/><path class="h" d="M1021.34,445.078c.322-.139.671.122,1.019.192.2.035.405,0,.605.035.405.057.806.327,1.193.192" transform="translate(-600.073 -266.759)"/><path class="h" d="M1019.08,446.218c.327-.139.675.122,1.024.187.2.039.405,0,.6.039.409.057.81.327,1.193.187" transform="translate(-598.798 -267.403)"/><path class="f" d="M872.4,398.21l8.262.544-13.693,4.1L860,402.348Z" transform="translate(-485.436 -224.774)"/><path class="g" d="M872.4,397.39l8.262.54-13.693,4.1-6.973-.5Z" transform="translate(-485.436 -224.311)"/><path class="h" d="M940.32,435.178c.327-.139.671.122,1.019.192.2.035.405,0,.605.035.405.057.806.327,1.193.192" transform="translate(-554.341 -261.171)"/><path class="h" d="M939.34,435.748c.322-.139.671.122,1.019.187.2.039.405,0,.605.039.405.057.806.327,1.193.187" transform="translate(-553.788 -261.493)"/><path class="h" d="M937.08,436.878c.327-.139.675.126,1.024.192.2.039.405,0,.6.039.41.052.81.327,1.193.187" transform="translate(-552.512 -262.131)"/><path class="f" d="M911.734,402.88l8.267.54-13.693,4.1-6.977-.505Z" transform="translate(-507.637 -227.41)"/><path class="g" d="M911.734,402.06l8.267.54-13.693,4.1-6.977-.505Z" transform="translate(-507.637 -226.947)"/><path class="h" d="M979.65,439.848c.327-.139.675.122,1.023.187.2.039.4,0,.6.039.405.052.81.327,1.193.187" transform="translate(-576.541 -263.807)"/><path class="h" d="M978.67,440.408c.327-.139.675.126,1.024.192.2.039.4,0,.6.039.405.052.81.327,1.193.187" transform="translate(-575.988 -264.124)"/><path class="h" d="M976.42,441.548c.322-.139.671.122,1.019.192.2.035.405,0,.605.035.405.057.806.327,1.193.192" transform="translate(-574.718 -264.767)"/><ellipse class="a" cx="88.188" cy="18.153" rx="88.188" ry="18.153" transform="translate(128.85 308.37)"/><path class="i" d="M556,321.031a59.08,59.08,0,0,0-4.665-16.154l.283-2.787s.061-1.394-.03-3.484a15.848,15.848,0,0,1,.51-3.868c.762-2.417-.954-5.388-1.146-5.662s.1-5.575-1.62-8.175-13.145-7.435-13.145-7.435-.614-1.285-1.481-2.787l.078-.152A16.378,16.378,0,0,0,532.173,267c-.7-.749-1.376-1.176-1.921-.967a15.676,15.676,0,0,1-.505-2.208c.113.03.231.061.344.083a3.554,3.554,0,0,0,1.437.035,4.271,4.271,0,0,0,2.361-2.091c2.953-4.486,5.5-9.408,6.015-14.717a9.357,9.357,0,0,0-.153-3.249,10.964,10.964,0,0,0-1.019-2.374,19.076,19.076,0,0,0-2.875-4.238,16.375,16.375,0,0,0-7.722-4.229,26.733,26.733,0,0,0-9.974-.745c-.871.1-1.742.244-2.613.3a27.147,27.147,0,0,1-3.314-.057l-5.7-.331-.026-.087-.95-.057a2.4,2.4,0,0,0,.466,2.326,3.969,3.969,0,0,1,.963,2.247,4.594,4.594,0,0,1-1.1,2.178,2.1,2.1,0,0,0-.353,2.278,1.306,1.306,0,0,0,.231.253,2.871,2.871,0,0,0,2.095.557h.131A14.186,14.186,0,0,0,505.1,250.5a14.443,14.443,0,0,0,7.879,12.8c.083.283.166.575.244.871a26.68,26.68,0,0,1,.915,9.416l-.1.218-.061-.231s-6.716,4.556-8.711,5.762-4,5.3-4.094,6.411-3.24,17.931-3.24,17.931a41.187,41.187,0,0,0-1.577,5.192l-4.011,3.523s-8.275.745-10.671.187l.07.462a36.187,36.187,0,0,0-6.429-.871,6.816,6.816,0,0,0-3.484.466l-.083.039-.065.031a13.8,13.8,0,0,0-3.659,1.028c-.139.057-.266.113-.388.17l.026-.571-8.955-.462-4.573-.928s-1.62-1.307-2.574-1.115-2.953-1.115-2.953-1.115a7.978,7.978,0,0,0-1.472-.915c-.152-1.054-.248-1.694-.248-1.694s-3.558-14.12-6.224-22.422c-1.786-5.544-4.355-8.275-5.871-9.464-.675-1.176-1.119-1.934-1.119-1.934-.292-1.019-1.895-3.314-2.3-3.371-.065-.1-.113-.157-.139-.157a.509.509,0,0,0-.257.039c-.749-3.728-1.185-8.4-.039-12.474a13.767,13.767,0,0,0,5.026-10.61q0-.091,0-.183v-.187a13.706,13.706,0,0,0-3.236-8.841l-.148-.165a1.155,1.155,0,0,0,.113-.091,2.334,2.334,0,0,0,.823-2.247,15.4,15.4,0,0,0-1.185-2.287,14.807,14.807,0,0,1-.483-1.864,5.75,5.75,0,0,0-1.372-2.391l.065.174a8.276,8.276,0,0,0-7.287-2.448c-1.964.314-3.794,1.228-5.767,1.511-1.415.2-2.857.07-4.281.213a11.111,11.111,0,0,0-3.8,1.1,2.178,2.178,0,0,0-.806.592,3.189,3.189,0,0,0-.4,1.119c-.483,1.764-2.017,3.023-3.127,4.495a10.518,10.518,0,0,0-2.108,5.81,4.547,4.547,0,0,0,.153,1.59c.1.309.244.6.314.915a6.277,6.277,0,0,1-.527,2.862,5.571,5.571,0,0,0,.309,3.632c1.72,3.85,7.369,5.135,8.545,9.177a11.242,11.242,0,0,0,2.827.871c.078.4.148.806.2,1.215a.326.326,0,0,0-.074.044,8.662,8.662,0,0,0-1.9,4.355l-.183.148c-.623.514-2.753,2.239-4.678,3.567-2.287,1.581-6.1,6.877-8.763,8.458s-4.861,11.324-4.286,14.865,2.953,13.471,2,17.095,1.429,20.161,1.429,20.161A24.349,24.349,0,0,1,403,331.358l-.048.723-.144,2.178s-4.316,15.61-2.665,27.626-.762,13.253-.762,13.253.505,5.327-.762,7.186-1.524,5.945-1.524,5.945-.126,9.168.126,11.76.379,7.313-.51,8.428-2.539,8.419-2.413,10.649-3.175,7.313-1.4,13.876-5.226,6.69-5.226,6.69.893,10.017,2.8,12.883l.279.409c-.048.165-.1.34-.148.527-.719,2.613-1.7,6.738-1.019,7.735,1.015,1.49,1.524,1.237,1.524,1.237l.379,6.69s7.622,6.442,13.467,6.2,4.7-6.2,4.7-6.2l-4.978-12.909-.17-.436,5.531-10.453s1.524-4.582,1.9-6.193,2.448-7.322,2.448-7.322,5.226-12.387,5.335-13.876.51-9.534,1.524-11.15,3.811-10.889,3.811-10.889l.07.061a3.672,3.672,0,0,1,.949,3.654c-.64,2.352-.257,7.182-.257,7.182a48.863,48.863,0,0,1-.762,6.2c-.51,2.108-.632,19.325.257,23.41.71,3.271.688,9.395.653,11.712-.6,2.461-1.119,5.518-.148,5.88,1.655.623,10.039.5,10.039.5s3.554-1.241,8.384,3.1,19.686-1.237,19.686-1.237,4.573-1.241-4.447-4.83c-6.294-2.5-10.357-4.172-13.014-5.958.061-.118.126-.235.183-.361,0,0-3.685-3.484-.636-9.66a26.9,26.9,0,0,0,2.922-11.4l.51-20.814-1.524-27.631-1.18-29,.209-.07c.2,5.331,1.241,18.023,6.69,15.562,6.86-3.1,1.015-11.15,1.015-11.15l-3.079-6,.919-.314-3.445-11.132a25.108,25.108,0,0,1-.131-6.564,26,26,0,0,0-.078-3.833c4.512-.788,8.833-1.625,9.608-1.433.915.222,6.032.266,8.044.274-.658.514-1.185,1.024-1.185,1.024l8.192,5.514s2.779-1.52,3.358-3.132a3.615,3.615,0,0,0,1.533-.819c.087,1.9.592,3.963,2.352,4.011a3.048,3.048,0,0,0,1.28-.253l13.4-2.652-1.15,7.182.8,1.424c-.405,6.058-.871,12.491-1.28,18.149l-.187,1.237.1.022c-.636,8.711-1.146,15.309-1.146,15.309a8.027,8.027,0,0,1,3.341-3.358l.087,12.927s.671,20.44.671,23.227.091,9.011.091,9.011,1.433,7.618,2.287,10.126,1.524,13.937,1.524,13.937,2,3.158,1.145,4.355,3.336,3.807,3.336,3.807-2.67,3.624-2.862,6.041c-.022.279.253.575.749.871-.157.126-.318.253-.5.375a8.7,8.7,0,0,1-5.775,1.167c-7.435-.653-12.674,6.224-8.1,7.618s18.293,1.672,18.293,1.672,4.155-2.591,7.4-1.424c-.048,2.726.087,5.226.109,5.557l-.039.03c-1.943,1.742-5.662,4.739-9.294,5.963-5.226,1.764-6.385,8.92.379,9.848s16.672-1.115,16.672-1.115,5.144-3.807,9.05-4.643,7.243-2.7,6.577-4.926c-.436-1.424-1.555-5.157-2.313-7.665q-.065-.227-.131-.436c.118-.261.235-.531.344-.81,0,0-2-10.405-.379-13.005s.762-28.619.762-28.619-2.766-6.594-1.333-10.588-2.287-9.665-2.287-9.665a176.557,176.557,0,0,1,1.494-17.7q.074-.405.144-.784a35.686,35.686,0,0,0,5.314-2.051s.954-14.312,1.524-17.561c.057-.3.135-.8.231-1.437l.436-2.3h0l.514-2.613h0l1.742-8.907,3.145-4.068,8.1-8.275S556.955,329.3,556,321.031Zm-124.93-51.1-.061.044a.76.76,0,0,1-.022-.1.394.394,0,0,0,.083.052Zm80.039,10.144-.314.684,1.146-1.141-1.555,1.742.523-1.1Zm-7.735,15.984c-.3.8-.623,1.659-.958,2.557l.614-1.834Z" transform="translate(-242.392 -143.166)"/><path class="j" d="M595.719,443.029s-1.067,7.1,2.134,7.2,5.34-5.479,5.34-5.479l-1.307-4.456Z" transform="translate(-359.731 -264.08)"/><path class="k" d="M595.719,443.029s-1.067,7.1,2.134,7.2,5.34-5.479,5.34-5.479l-1.307-4.456Z" transform="translate(-359.731 -264.08)"/><path class="l" d="M411.6,768.49c-5.7.248-13.127-6.189-13.127-6.189l-.37-6.686s-.492.248-1.485-1.237c-.666-1,.292-5.131.993-7.731.34-1.272.618-2.178.618-2.178l12.5,3.345.6,1.581,4.852,12.9S417.293,768.242,411.6,768.49Z" transform="translate(-247.315 -435.777)"/><path class="l" d="M514.4,737.718s-14.482,5.57-19.164,1.237-8.171-3.1-8.171-3.1-8.171.126-9.782-.5c-.949-.362-.435-3.458.157-5.923.4-1.7.836-3.11.836-3.11s14.233-4.83,16.463-1.86a10.676,10.676,0,0,0,2.374,2.265c2.578,1.864,6.607,3.554,12.979,6.154C518.851,736.476,514.4,737.718,514.4,737.718Z" transform="translate(-292.676 -423.942)"/><path class="m" d="M528.689,496.35l3.959,7.922s5.7,8.049-.989,11.141-6.559-17.822-6.559-17.822Z" transform="translate(-319.965 -295.723)"/><path class="n" d="M495.25,338.61s4.334,1.982,6.934,10.274,6.067,22.409,6.067,22.409,2.352,15.967,1.977,19.93a25.7,25.7,0,0,0,.126,6.559l3.341,11.141-6.686,2.352-10.274-39.364Z" transform="translate(-303.116 -206.685)"/><path class="d" d="M495.25,338.61s4.334,1.982,6.934,10.274,6.067,22.409,6.067,22.409,2.352,15.967,1.977,19.93a25.7,25.7,0,0,0,.126,6.559l3.341,11.141-6.686,2.352-10.274-39.364Z" transform="translate(-303.116 -206.685)"/><path class="f" d="M412.291,747.831l.6,1.581-.732,1.4c-2.848,1.237-9.9.248-9.9.248s-1.307-1.659-3.092-4.39c.34-1.272.618-2.178.618-2.178Z" transform="translate(-248.877 -435.789)"/><path class="f" d="M498.4,727.317c-3.611,8.179-15.884,5.144-19.294,4.12-.562-.17-.871-.283-.871-.283s.022-.666.03-1.716c.4-1.7.836-3.11.836-3.11s14.233-4.83,16.463-1.86a10.677,10.677,0,0,0,2.374,2.265A4.2,4.2,0,0,0,498.4,727.317Z" transform="translate(-293.509 -423.942)"/><path class="o" d="M449.449,568.644c-2.97,6.185.623,9.656.623,9.656-3.611,8.175-15.884,5.144-19.294,4.116-.562-.166-.871-.279-.871-.279s.248-8.545-.618-12.631-.745-21.289-.248-23.393a49.808,49.808,0,0,0,.74-6.193s-.37-4.826.248-7.178a3.706,3.706,0,0,0-.923-3.65l-.065-.065s-2.722,9.286-3.715,10.888-1.359,9.656-1.485,11.141-5.2,13.868-5.2,13.868-1.977,5.693-2.348,7.3-1.86,6.193-1.86,6.193l-5.967,11.516c-2.848,1.237-9.9.248-9.9.248s-1.359-1.742-3.219-4.582-2.722-12.87-2.722-12.87,6.807-.126,5.074-6.686,1.485-11.638,1.363-13.867,1.485-9.53,2.352-10.645.74-5.819.492-8.419-.122-11.76-.122-11.76.248-4.085,1.485-5.941.745-7.182.745-7.182,2.348-1.237.74-13.245,2.613-27.6,2.613-27.6l.144-2.178.226-3.528s35.4-2.23,38.253.492a9.388,9.388,0,0,1,1.807,2.591,25.782,25.782,0,0,1,2.047,6.59l1.485,37.509,1.485,27.6-.5,20.8A27.648,27.648,0,0,1,449.449,568.644Z" transform="translate(-245.186 -275.665)"/><path class="f" d="M485.65,538.42l-3.715,80.461-4.46,7.334c-.562-.165-.871-.279-.871-.279s.248-8.545-.618-12.631-.745-21.289-.248-23.393a49.8,49.8,0,0,0,.74-6.193s-.37-4.826.248-7.178a3.706,3.706,0,0,0-.923-3.65l.061-.435Z" transform="translate(-291.883 -319.47)"/><path class="f" d="M406.824,733.111s9.656-3.837,11.141-2.613-11.385,3.092-11.385,3.092Z" transform="translate(-253.066 -427.755)"/><path class="f" d="M504.948,713.5c-.37.126-9.778,3.484-8.911,7.056S504.948,713.5,504.948,713.5Z" transform="translate(-303.529 -418.296)"/><path class="m" d="M449.07,287.089s3.153,7.613,1.485,11.516,18.01,10.584,18.01,10.584-5.753-14.856-.183-23.214S449.07,287.089,449.07,287.089Z" transform="translate(-277.049 -175.029)"/><path class="p" d="M675.188,779.531c-3.807.836-8.82,4.643-8.82,4.643s-9.656,2.043-16.25,1.115-5.475-8.079-.37-9.843c3.541-1.219,7.169-4.229,9.064-5.954.836-.771,1.333-1.307,1.333-1.307l18.48-3.715s.3,1.032.719,2.456c.74,2.513,1.834,6.241,2.252,7.661C682.244,776.839,678.995,778.695,675.188,779.531Z" transform="translate(-387.95 -447.067)"/><path class="p" d="M652.928,748.033s-7.8.836-11.05-1.019-7.892,1.115-7.892,1.115-13.371-.279-17.827-1.672.649-8.275,7.892-7.613a8.319,8.319,0,0,0,5.631-1.167A5.932,5.932,0,0,0,632.135,734l15.679.928,2.178,5.557Z" transform="translate(-370.424 -429.867)"/><path class="f" d="M669.919,743.02s-18.223-2.979-20.549-5.344A5.932,5.932,0,0,0,651.822,734l15.679.928,2.178,5.557Z" transform="translate(-390.111 -429.867)"/><path class="q" d="M634.52,513.766l.187,27.2s.649,20.427.649,23.214.091,9,.091,9,1.394,7.613,2.23,10.122,1.485,13.937,1.485,13.937,1.951,3.158,1.115,4.355,3.249,3.807,3.249,3.807-2.613,3.624-2.783,6.037,20.793,5.841,20.793,5.841L653.37,533.54l-6.5-20.98Z" transform="translate(-381.729 -304.873)"/><path class="f" d="M634.52,513.766l.187,27.2s.649,20.427.649,23.214.091,9,.091,9,1.394,7.613,2.23,10.122,1.485,13.937,1.485,13.937,1.951,3.158,1.115,4.355,3.249,3.807,3.249,3.807-2.613,3.624-2.783,6.037,20.793,5.841,20.793,5.841L653.37,533.54l-6.5-20.98Z" transform="translate(-381.729 -304.873)"/><path class="f" d="M696.541,766.948c-6.067,14.464-20.5,3.3-20.5,3.3s0-.279-.035-.758c.836-.771,1.333-1.307,1.333-1.307l18.48-3.715S696.123,765.524,696.541,766.948Z" transform="translate(-405.148 -447.067)"/><path class="q" d="M678.253,619.554c-5.945,15.244-20.706,3.807-20.706,3.807s-.466-7.892.466-11.511-1.024-14.486-1.024-14.486-1.115-9.656-2.134-11.882-.928-6.685-.928-7.056.37-3.345-.466-5.388-1.307-7.056-1.307-7.056a74.454,74.454,0,0,0-.836-11.233l-2.879-14.373-5.2-29.434,1.625-.279,29.107-5.1s5.479,27.875,3.619,30.732a11.988,11.988,0,0,0-1.045,3.767c-1.063,6.324-1.459,17.679-1.459,17.679s3.619,5.662,2.23,9.656,1.307,10.584,1.307,10.584.836,26-.745,28.6S678.253,619.554,678.253,619.554Z" transform="translate(-386.651 -300.922)"/><path class="r" d="M689.131,306.92S662.763,325.487,668.7,316.2c3.2-5,2.613-11.368,1.359-16.176a38.171,38.171,0,0,0-2.613-7.095s22.4-9.53,19.434-.989a16,16,0,0,0-.871,6.2A16.551,16.551,0,0,0,689.131,306.92Z" transform="translate(-400.316 -178.336)"/><path class="r" d="M590.552,426.692s-11.141-3.219-13-.061.557,10.087,3.92,11.2,11.08-3.776,11.08-3.776Z" transform="translate(-349.211 -255.587)"/><path class="j" d="M616.811,416l-4.643,4.273s-8.079.74-10.4.183c0,0,2.139,14.3-.928,16.063l18.754-3.807Z" transform="translate(-362.718 -250.369)"/><path class="f" d="M616.811,416l-4.643,4.273s-8.079.74-10.4.183c0,0,2.139,14.3-.928,16.063l18.754-3.807Z" transform="translate(-362.718 -250.369)"/><path class="f" d="M464.51,256.313a13.937,13.937,0,0,1-13.937,13.937c-7.152-3.436-13.937-6.233-13.937-13.937a13.937,13.937,0,1,1,27.853,0Z" transform="translate(-270.025 -152.054)"/><path class="m" d="M464.59,256.212a13.911,13.911,0,1,1-3.153-8.811A13.911,13.911,0,0,1,464.59,256.212Z" transform="translate(-270.104 -152.327)"/><path class="f" d="M467.1,464.789a31.493,31.493,0,0,1-4.316,2.239s-7.056-1.024-8.075.183-10.017,1.672-10.017,1.672-13.741-.649-15.784-2.413a8.365,8.365,0,0,0-2.086-1.237l.226-3.528s35.4-2.23,38.253.492A9.39,9.39,0,0,1,467.1,464.789Z" transform="translate(-264.49 -275.682)"/><path class="n" d="M458.532,376.144c-.279,1.577-6.037,3.99-6.037,3.99s-7.056-1.019-8.075.187-10.017,1.672-10.017,1.672-13.741-.653-15.784-2.417-6.594-2.613-6.594-2.613-2.321-16.524-1.389-20.144-1.394-13.558-1.951-17.086,1.577-13.275,4.177-14.852,6.315-6.873,8.541-8.449c1.877-1.328,3.95-3.049,4.556-3.567l.179-.148a8.79,8.79,0,0,1,1.86-4.355c1.485-1.476,15.131,9.377,15.131,9.377s.1.836,1.023-.74c.209-.353,2.008,2.243,2.321,3.341,0,0,7.426,13,7.892,15.679s2.413,11.42,2.783,13.554c.1.549.253,2.474.435,5.052.035.505.065,1.041.1,1.6.274,4.277.571,9.739.749,13.868,0,.47.039.923.052,1.359A46.229,46.229,0,0,1,458.532,376.144Z" transform="translate(-254.203 -189.533)"/><path class="f" d="M415,387.21s5.1,6.22,6.777,6.22S415,387.21,415,387.21Z" transform="translate(-257.818 -234.118)"/><path class="f" d="M430.17,417.91s-8.358,9.1-7.243,10.771S430.17,417.91,430.17,417.91Z" transform="translate(-262.235 -251.447)"/><path class="f" d="M425.62,441.191S435.2,430.7,435.637,427.08Z" transform="translate(-263.813 -256.623)"/><path class="f" d="M453.33,446.435s11.05-5.849,11.977-10.492S453.33,446.435,453.33,446.435Z" transform="translate(-279.454 -261.126)"/><path class="f" d="M483.533,330.011,482,333.722l2.552,1.206,2.509,7.012s6.916,13.833,6.638,21.028,1.254,18.009,1.254,18.009l3.99-.74-1.882-21.163a30.528,30.528,0,0,0-2.43-9.5c-3.188-7.3-9.12-20.775-9.495-20.775-.51,0-.152.187-.152.187Z" transform="translate(-295.637 -201.148)"/><path class="s" d="M484.383,329.156l-1.533,3.715,2.557,1.206,2.5,7.012s6.916,13.833,6.638,21.028,1.254,18.01,1.254,18.01l3.994-.74-1.886-21.163a30.409,30.409,0,0,0-2.426-9.5c-3.188-7.3-9.12-20.775-9.49-20.775-.514,0-.157.187-.157.187Z" transform="translate(-296.117 -200.668)"/><path class="m" d="M578.208,439.248c-1.942-.148-6.6-2.5-8.454-3.484l-.784-.436.1-7.191a12.631,12.631,0,0,1,1.42-.719c2.474-1.08,7.548-2.548,10.091,2.178C584.009,435.934,580.669,439.413,578.208,439.248Z" transform="translate(-344.728 -256.195)"/><path class="f" d="M461.339,247.34a2.061,2.061,0,0,1-.649.266c-1.616.353-3.454-1.037-4.839-.144a3.507,3.507,0,0,0-1.154,2.687q-.3,2.613-.592,5.192a6.406,6.406,0,0,1-.383,1.79,4.491,4.491,0,0,1-4.273,2.273,2.548,2.548,0,0,1-1.842-.61c-.3-.3-.462-.732-.793-1.01-2.178-1.825-2.84,2.648-2.265,3.92.923,2.078,4.2,4.081,2.827,6.72a2.517,2.517,0,0,1-1.01,1.015,13.937,13.937,0,1,1,14.974-22.1Z" transform="translate(-270.007 -152.266)"/><path class="t" d="M440.634,249.605c.327.274.492.7.793,1.006a2.552,2.552,0,0,0,1.842.61c1.712.026,3.589-.706,4.268-2.278a6.2,6.2,0,0,0,.388-1.786l.592-5.192a3.492,3.492,0,0,1,1.154-2.687c1.385-.871,3.223.5,4.839.144a2.365,2.365,0,0,0,1.742-2.726,15.343,15.343,0,0,0-1.15-2.282,14.921,14.921,0,0,1-.475-1.86c-.9-3.38-4.869-5.279-8.319-4.713-1.916.318-3.7,1.233-5.618,1.511-1.376.2-2.783.07-4.172.218a10.531,10.531,0,0,0-3.7,1.093,2.151,2.151,0,0,0-.784.592,3.271,3.271,0,0,0-.392,1.115c-.466,1.742-1.964,3.027-3.049,4.495a10.71,10.71,0,0,0-2.064,5.8,4.648,4.648,0,0,0,.148,1.59c.091.3.235.6.3.915a6.371,6.371,0,0,1-.514,2.857,5.715,5.715,0,0,0,.3,3.632c1.672,3.846,7.182,5.131,8.328,9.168a9.146,9.146,0,0,0,3.24.871,3.126,3.126,0,0,0,2.857-1.459c1.372-2.613-1.9-4.643-2.827-6.716C437.79,252.245,438.439,247.776,440.634,249.605Z" transform="translate(-264.197 -144.105)"/><path class="f" d="M686.928,291.942a16,16,0,0,0-.871,6.2c-.671.571-1.4-1.137-2.178-.7-2.125,1.228-4.582,4.151-7.213,4.151a14.447,14.447,0,0,1-6.564-1.572,38.171,38.171,0,0,0-2.613-7.095S689.9,283.4,686.928,291.942Z" transform="translate(-400.339 -178.336)"/><path class="r" d="M684.232,264.986A14.486,14.486,0,1,1,669.746,250.5,14.486,14.486,0,0,1,684.232,264.986Z" transform="translate(-393.436 -156.951)"/><path class="u" d="M673.989,327.741s-2.726,2.97-3.1,3.214-8.275,33.536-8.415,33.924-9.412,30.449-9.412,30.449l-14.856,7.3,1.241-36.768,10.888-30.322s3.593-4.085,4.7-5.571,14.978-10.4,14.978-10.4l2.369,4.882Z" transform="translate(-383.812 -195.938)"/><path class="f" d="M693.356,326.162l-17.082,12.23L676,331.676c1.115-1.485,14.978-10.4,14.978-10.4Z" transform="translate(-405.143 -196.903)"/><path class="u" d="M694.218,324.452l-17.082,12.23-.266-6.712c1.115-1.49,14.978-10.4,14.978-10.4Z" transform="translate(-405.634 -195.938)"/><path class="j" d="M648.291,336.59l.571,2.988-3.82,3.881,3.049-6.825s-6.533,4.551-8.493,5.758-3.92,5.292-3.994,6.407-3.158,17.918-3.158,17.918-2.321,6.219-1.668,7.983-3.528,57.378-3.528,57.378a8.275,8.275,0,0,1,5.584-4.281l-1.49-32.866s1.812-21.864,1.9-22.143,4.225-12.953,4.225-12.953Z" transform="translate(-377.625 -205.545)"/><path class="f" d="M651.917,344.3l-.3,6.1s-4.133,13.044-5.523,15.179-5.618,14.856-5.618,14.856l-2.382,22.1-4.085,1.86L632,400.685l3.345-21.341s6.311-18.01,7.243-19.869l4.656-9.808Z" transform="translate(-380.306 -209.897)"/><path class="v" d="M651.04,343.45l-.292,6.1s-4.133,13.044-5.527,15.179-5.614,14.856-5.614,14.856l-2.369,22.095-4.085,1.855-2.043-3.711,3.345-21.341s6.311-18.014,7.239-19.869l4.691-9.8Z" transform="translate(-379.804 -209.417)"/><path class="r" d="M566.31,447.685l7.984,5.527s5.631-3.158,2.352-5.2a14.542,14.542,0,0,0-7.243-2.352C568.348,445.66,566.31,447.685,566.31,447.685Z" transform="translate(-343.227 -267.111)"/><path class="r" d="M579.249,425.9a1.228,1.228,0,0,0-.579,1.05c0,1.694.192,6.18,1.612,4.155,1.742-2.478,1.424-4.7,4.085-3.1a15.679,15.679,0,0,1,4.268,3.92l-.74-5.322S582.424,423.9,579.249,425.9Z" transform="translate(-350.204 -255.541)"/><path class="f" d="M679.418,536.252a11.986,11.986,0,0,0-1.045,3.767c-16.28,4.882-28.192-5.44-28.192-5.44a142.076,142.076,0,0,1-3.528-14.852,48.4,48.4,0,0,1,.044-9.1l29.107-5.1S681.278,533.373,679.418,536.252Z" transform="translate(-388.469 -300.899)"/><path class="j" d="M696.1,348.036c-.74,2.417-.462,7.334-.462,7.334l-6.686,31.568s-3.249,24.325-3.807,27.574-1.485,17.548-1.485,17.548c-18.942,9.286-33.536-3.341-33.536-3.341a142.356,142.356,0,0,1-3.528-14.856c-.932-5.514,1.812-27.6,3.11-37.417.388-2.905.649-4.734.649-4.734l4.874-18.105s5.989-15.274,8.219-19.73,11.185-14.464,11.185-14.464c1.111-.706,2.888,1.786,4.207,4.055,1,1.716,1.742,3.31,1.742,3.31s11.141,4.826,12.809,7.4,1.394,7.892,1.581,8.171S696.843,345.623,696.1,348.036Z" transform="translate(-388.438 -195.78)"/><path class="f" d="M674.6,337.283s.836,4.922-1.307,6.407c-2.069,1.437-17.469,31.72-18.428,33.611.388-2.909.649-4.739.649-4.739l4.874-18.1s5.993-15.274,8.219-19.734S679.8,320.262,679.8,320.262c1.111-.706,2.883,1.786,4.2,4.055C682.013,328.45,677.862,336.264,674.6,337.283Z" transform="translate(-393.216 -196.26)"/><path class="j" d="M673.743,336.433s.832,4.922-1.307,6.407S654.971,374.556,654,376.446c.388-2.905.649-4.734.649-4.734l4.874-18.105s5.989-15.274,8.219-19.73,11.185-14.464,11.185-14.464c1.111-.706,2.888,1.786,4.207,4.055C681.152,327.6,677,335.414,673.743,336.433Z" transform="translate(-392.724 -195.78)"/><path class="w" d="M627.966,414.1l-5.24,27.26v0l-.5,2.609v0l-1.128,5.867-4.813-1.019-2.243-.475L583,441.774l-2.282-.483-5.209-1.1,1.019-6.768.423-2.814,3.759-24.956Z" transform="translate(-324.853 -228.974)"/><path class="r" d="M670.538,511.92s-12.348,4.456-9.656,9.747,19.961-4.085,19.961-4.085Z" transform="translate(-396.393 -304.512)"/><path class="f" d="M703.8,599.1c0,.37.466,5.109,2.321,6.777S703.8,599.1,703.8,599.1Z" transform="translate(-420.835 -353.722)"/><path class="f" d="M675.24,637.68s2.226,6.128,11.045,8.637S675.24,637.68,675.24,637.68Z" transform="translate(-404.714 -375.499)"/><path class="f" d="M687.884,265.035a14.482,14.482,0,0,1-7.26,12.557,7.709,7.709,0,0,1-2.178-1.816,2.814,2.814,0,0,1-.745-2.726c.3-.736,1.111-1.2,1.307-1.964a2.893,2.893,0,0,0-.07-1.4c-.161-.719-.314-1.437-.47-2.152-.135-.61-.375-1.328-.98-1.476s-1.111.357-1.585.732c-1.163.919-3.393,1.542-4.791.788s-1.006-3.275-1.233-4.639a.81.81,0,0,0-.3-.614,1.272,1.272,0,0,0-.632-.044,1.818,1.818,0,0,1-1.577-1.4,12.038,12.038,0,0,1-.253-2.243,2.5,2.5,0,0,0-1-1.938,3.1,3.1,0,0,0-1.651-.27l-2.731.03a14.486,14.486,0,0,1,26.132,8.589Z" transform="translate(-397.088 -156.999)"/><path class="v" d="M673.011,261.724c.475-.375,1-.871,1.585-.727s.841.871.976,1.472l.47,2.147a2.919,2.919,0,0,1,.074,1.407c-.222.767-1.023,1.228-1.333,1.964a2.814,2.814,0,0,0,.745,2.722,7.84,7.84,0,0,0,4.482,2.679,3.292,3.292,0,0,0,1.4.03,4.137,4.137,0,0,0,2.3-2.086c2.879-4.486,5.357-9.4,5.862-14.708a9.436,9.436,0,0,0-.148-3.245,10.885,10.885,0,0,0-.993-2.374,19.161,19.161,0,0,0-2.8-4.238,15.906,15.906,0,0,0-7.526-4.22,25.488,25.488,0,0,0-9.717-.762c-.871.1-1.707.244-2.565.3a25.82,25.82,0,0,1-3.232-.052l-6.411-.383a2.49,2.49,0,0,0,.436,2.326,4.175,4.175,0,0,1,.941,2.247,4.623,4.623,0,0,1-1.076,2.178,2.144,2.144,0,0,0-.344,2.278,2.436,2.436,0,0,0,2.178.714l3.232-.035a3.088,3.088,0,0,1,1.642.283,2.509,2.509,0,0,1,1,1.938,12.8,12.8,0,0,0,.253,2.243,1.812,1.812,0,0,0,1.577,1.4,1.176,1.176,0,0,1,.632.048.8.8,0,0,1,.3.61c.226,1.363-.192,3.881,1.233,4.638S671.848,262.643,673.011,261.724Z" transform="translate(-393.809 -151.938)"/><path class="f" d="M701.875,353.418a7.1,7.1,0,0,0-7.469,4.769c-1.742,4.961-4.647,13.911-3.92,17.448,1.023,5.013,2.23,13.371,2.23,13.371s5.292,3.049,2.613,6.124a17.345,17.345,0,0,0-3.436,7.43s-3.436,1.485-4.177,4.643-5.758,7.517-5.758,7.517l-7.517,7.522s12.439,12.631,14.948,13.275l7.7-9.007,9.1-12.069,7.892-8.275s1.855-4.355.928-12.631a60.448,60.448,0,0,0-4.551-16.154l.279-2.787S711.591,354.625,701.875,353.418Z" transform="translate(-404.262 -215.021)"/><path class="j" d="M703.58,353.419a7.1,7.1,0,0,0-7.461,4.769c-1.742,4.961-4.647,13.911-3.92,17.448,1.019,5.013,2.226,13.371,2.226,13.371s5.292,3.049,2.613,6.124a17.31,17.31,0,0,0-3.432,7.43s-3.436,1.485-4.181,4.643-5.753,7.517-5.753,7.517l-7.522,7.522s12.439,12.631,14.948,13.275l7.7-9.007,9.077-12.069,7.892-8.275s1.86-4.355.928-12.631a60.715,60.715,0,0,0-4.547-16.154l.279-2.787S713.3,354.626,703.58,353.419Z" transform="translate(-405.227 -215.022)"/><path class="f" d="M721.28,418.34s7.892,9.652,11.237,7.517S721.28,418.34,721.28,418.34Z" transform="translate(-430.701 -251.69)"/><path class="f" d="M728.1,401.28c.836.279,7.709,9.843,11.237,8.711S728.1,401.28,728.1,401.28Z" transform="translate(-434.551 -242.06)"/><path class="f" d="M732.58,439s.466,5.479,6.128,4.734S732.58,439,732.58,439Z" transform="translate(-437.08 -263.351)"/><path class="f" d="M617.052,301.83l-3.062,6.825,3.824-3.881Z" transform="translate(-346.573 -170.371)"/><path class="u" d="M617.052,300.98,613.99,307.8l3.824-3.881Z" transform="translate(-346.573 -169.891)"/><path class="x" d="M584.322,474.117l-2.282-.483-4.19-7.87.423-2.814Z" transform="translate(-326.174 -261.317)"/><path class="x" d="M672.665,487.65l-.5,2.609v0l-5.941,4.848-2.243-.475Z" transform="translate(-374.791 -275.259)"/><path class="f" d="M465.039,391.729c-1.15.192-2.265.366-3.284.5-5.662.745-19.129-5.941-19.129-5.941s-16.433-13.741-21.167-26.738,5.662-14.948,5.662-14.948c3.92-2.23,12.443,3.99,13.65,5.013A7.753,7.753,0,0,1,442.9,354.9c-.1,1.672,2.787,3.807,2.787,3.807s4.922,8.541,6.128,9.469a4.845,4.845,0,0,1,1.855,3.345c.37,1.581,3.619,2.879,5.013,2.783s3.049.466,3.049,1.206c0,.6,1.363.893,2.483.989C464.551,381.263,464.877,387.5,465.039,391.729Z" transform="translate(-260.766 -209.795)"/><path class="f" d="M465.952,388.445c-.871.139-1.707.266-2.491.37-5.662.745-19.125-5.941-19.125-5.941s-16.433-13.741-21.167-26.738,5.662-14.948,5.662-14.948c3.92-2.23,12.439,3.99,13.645,5.013a7.776,7.776,0,0,1,2.138,5.292c-.091,1.672,2.783,3.807,2.783,3.807s4.922,8.541,6.128,9.469a4.866,4.866,0,0,1,1.86,3.345c.375,1.581,3.619,2.875,5.013,2.783s3.049.466,3.049,1.206c0,.436.775.727,1.638.871.035.505.065,1.041.1,1.6C465.477,378.854,465.773,384.316,465.952,388.445Z" transform="translate(-261.732 -207.87)"/><path class="f" d="M570.486,428.84l-.353,8.345h-.379l-.784-.436.1-7.191A12.626,12.626,0,0,1,570.486,428.84Z" transform="translate(-344.728 -257.617)"/><path class="n" d="M427.121,342.891s-10.4,1.951-5.662,14.948,21.167,26.742,21.167,26.742,13.463,6.681,19.129,5.941,14.294-2.692,15.409-2.413,8.637.279,8.637.279l.37-8.711-8.711-.466L473,378.283s-1.581-1.307-2.509-1.115-2.875-1.115-2.875-1.115a5.55,5.55,0,0,0-2.613-1.206c-1.124,0-3.249-.279-3.249-1.019s-1.672-1.307-3.049-1.206-4.665-1.206-5.048-2.8-.649-2.413-1.855-3.341S445.679,357,445.679,357s-2.879-2.134-2.787-3.8a7.792,7.792,0,0,0-2.134-5.3C439.551,346.88,431.014,340.665,427.121,342.891Z" transform="translate(-260.766 -208.832)"/><path class="f" d="M493.389,412.15s-3.994,3.994-2.975,4.734Z" transform="translate(-300.293 -248.196)"/><path class="f" d="M502.019,419.4s-5.2,3.994-3.807,4.273S502.019,419.4,502.019,419.4Z" transform="translate(-304.655 -252.288)"/><path class="f" d="M487,433c.745.375,11.79,6.969,15.971,6.873Z" transform="translate(-298.459 -259.965)"/><path class="f" d="M466.469,319.469s-1.951,6.407-2.7,6.407c-.584,0-10.383-7.936-14.473-11.272l.179-.148a8.766,8.766,0,0,1,1.855-4.355C452.819,308.624,466.469,319.469,466.469,319.469Z" transform="translate(-277.179 -190.515)"/><path class="n" d="M465.609,317.759s-1.947,6.407-2.692,6.407c-.588,0-10.388-7.935-14.477-11.272l.179-.148a8.789,8.789,0,0,1,1.86-4.355C451.964,306.914,465.609,317.759,465.609,317.759Z" transform="translate(-276.694 -189.55)"/><g class="y" transform="translate(162.622 86.01)"><path d="M427.49,282.54h0c1.307,2.983,4.9,4.429,6.99,6.807C433.239,286.425,429.611,284.992,427.49,282.54Z" transform="translate(-427.49 -261.046)"/><path d="M450.643,295.057a3.13,3.13,0,0,1-2.857,1.459,8.336,8.336,0,0,1-2.866-.732,5.572,5.572,0,0,1,.74,1.577,9.1,9.1,0,0,0,3.24.871,3.1,3.1,0,0,0,2.857-1.459c.832-1.59-.035-2.949-1.05-4.233A2.766,2.766,0,0,1,450.643,295.057Z" transform="translate(-437.329 -266.691)"/><path d="M470.31,239.727a14.933,14.933,0,0,0-1.15-2.282,14.259,14.259,0,0,1-.475-1.864,5.776,5.776,0,0,0-1.337-2.391,5.559,5.559,0,0,1,.222.658,14.967,14.967,0,0,0,.488,1.873,14.939,14.939,0,0,1,1.15,2.282,2.365,2.365,0,0,1-1.742,2.726c-1.611.353-3.449-1.041-4.834-.144a3.479,3.479,0,0,0-1.159,2.683q-.292,2.613-.592,5.2a6.231,6.231,0,0,1-.383,1.786,4.487,4.487,0,0,1-4.273,2.278,2.566,2.566,0,0,1-1.838-.61,12.14,12.14,0,0,0-.8-1.01c-2.178-1.829-2.84,2.644-2.265,3.92a7.889,7.889,0,0,0,1.063,1.6c-.479-1.437.192-5.575,2.317-3.8a11.24,11.24,0,0,1,.793,1.01,2.583,2.583,0,0,0,1.842.61,4.487,4.487,0,0,0,4.273-2.278,6.226,6.226,0,0,0,.383-1.79q.3-2.613.592-5.192a3.491,3.491,0,0,1,1.154-2.683c1.389-.9,3.227.5,4.839.139A2.361,2.361,0,0,0,470.31,239.727Z" transform="translate(-440.833 -233.19)"/></g><path class="f" d="M682.2,272.223a3.367,3.367,0,0,1-1.4-.035,7.84,7.84,0,0,1-4.477-2.674,2.8,2.8,0,0,1-.745-2.726c.3-.736,1.106-1.2,1.307-1.964a2.919,2.919,0,0,0-.074-1.407l-.47-2.147c-.135-.61-.37-1.328-.976-1.472s-1.111.353-1.585.727c-1.163.919-3.4,1.546-4.791.788s-1.006-3.275-1.233-4.638a.815.815,0,0,0-.3-.61,1.242,1.242,0,0,0-.636-.048,1.823,1.823,0,0,1-1.577-1.4,12.362,12.362,0,0,1-.248-2.243,2.513,2.513,0,0,0-1.006-1.938,3.132,3.132,0,0,0-1.642-.283l-3.232.035c-.8,0-1.742-.052-2.178-.714a2.169,2.169,0,0,1,.344-2.278,4.509,4.509,0,0,0,1.076-2.178,4.1,4.1,0,0,0-.941-2.247,4.029,4.029,0,0,1-.549-1.246l-.928-.057a2.506,2.506,0,0,0,.436,2.326,4.155,4.155,0,0,1,.941,2.243,4.624,4.624,0,0,1-1.076,2.178,2.133,2.133,0,0,0-.34,2.278,2.434,2.434,0,0,0,2.178.719l3.232-.039a3.127,3.127,0,0,1,1.642.287,2.5,2.5,0,0,1,1.006,1.938,12.027,12.027,0,0,0,.253,2.243,1.8,1.8,0,0,0,1.577,1.394,1.276,1.276,0,0,1,.632.048.818.818,0,0,1,.3.614c.227,1.359-.192,3.881,1.233,4.638s3.645.131,4.791-.788c.475-.375,1-.871,1.59-.732s.841.871.971,1.472l.475,2.152a2.914,2.914,0,0,1,.07,1.407c-.218.762-1.023,1.228-1.328,1.96a2.812,2.812,0,0,0,.745,2.726,7.84,7.84,0,0,0,4.508,2.674,3.367,3.367,0,0,0,1.4.035,3.284,3.284,0,0,0,1.812-1.376A2.42,2.42,0,0,1,682.2,272.223Z" transform="translate(-393.676 -151.853)"/><ellipse class="a" cx="10.527" cy="1.616" rx="10.527" ry="1.616" transform="translate(78.188 309.49)"/><ellipse class="a" cx="10.527" cy="1.616" rx="10.527" ry="1.616" transform="translate(445.748 267.478)"/><ellipse class="a" cx="30.488" cy="4.678" rx="30.488" ry="4.678" transform="translate(318.466 329.529)"/><ellipse class="a" cx="23.78" cy="3.65" rx="23.78" ry="3.65" transform="translate(411.841 310.74)"/><ellipse class="a" cx="40.327" cy="6.189" rx="40.327" ry="6.189" transform="translate(391.38 344.568)"/><ellipse class="a" cx="30.488" cy="4.678" rx="30.488" ry="4.678" transform="translate(13.171 351.524)"/><path class="w" d="M254.64,631.85s1.193,1.559-.549,3.92-3.179,4.355-2.613,5.81c0,0,2.613-4.355,4.791-4.434S257,634.481,254.64,631.85Z" transform="translate(-165.446 -372.208)"/><path class="f" d="M254.74,631.85a1.74,1.74,0,0,1,.244.488c2.091,2.456,3.2,4.743,1.193,4.791-1.868.052-4.111,3.4-4.647,4.242a1.611,1.611,0,0,0,.061.192s2.613-4.355,4.791-4.434S257.1,634.481,254.74,631.85Z" transform="translate(-165.546 -372.208)"/><path class="z" d="M263.639,635.953c0,.549-.065.993-.139.993s-.139-.436-.139-.993.078-.287.152-.287S263.639,635.4,263.639,635.953Z" transform="translate(-172.223 -374.324)"/><path class="z" d="M264.523,637.429c-.479.261-.9.436-.936.353s.322-.331.806-.6.292-.07.327,0S265.007,637.163,264.523,637.429Z" transform="translate(-172.35 -375.143)"/><path class="w" d="M240.971,631.85s-1.193,1.559.549,3.92,3.184,4.355,2.613,5.81c0,0-2.613-4.355-4.769-4.434S238.6,634.481,240.971,631.85Z" transform="translate(-158.075 -372.208)"/><path class="f" d="M240.959,631.85a1.918,1.918,0,0,0-.244.488c-2.091,2.456-3.2,4.743-1.193,4.791,1.868.052,4.111,3.4,4.652,4.242a1.667,1.667,0,0,1-.065.192s-2.613-4.355-4.769-4.434S238.589,634.481,240.959,631.85Z" transform="translate(-158.063 -372.208)"/><path class="z" d="M239.35,635.953c0,.549.061.993.135.993s.139-.436.139-.993-.078-.287-.152-.287S239.35,635.4,239.35,635.953Z" transform="translate(-158.671 -374.324)"/><path class="z" d="M237.22,637.429c.483.261.9.436.941.353s-.327-.331-.81-.6-.292-.07-.327,0S236.737,637.163,237.22,637.429Z" transform="translate(-157.303 -375.143)"/><ellipse class="a" cx="12.469" cy="1.912" rx="12.469" ry="1.912" transform="translate(73.576 277.473)"/><path class="aa" d="M249.766,648.407l-.061.488-.083.688-.035.287-.083.688-.039.287-.083.688-.954,7.84c-.083.7-1.224,1.241-2.613,1.241h-4.939c-1.376,0-2.517-.544-2.613-1.241l-.954-7.84-.083-.688-.035-.287-.087-.688-.035-.287-.083-.688-.061-.488c-.048-.4.571-.727,1.35-.727H248.42C249.2,647.68,249.814,648.011,249.766,648.407Z" transform="translate(-157.301 -381.143)"/><path class="ab" d="M195.678,614.76l-.083.688H183.043l-.083-.688Z" transform="translate(-103.274 -347.008)"/><path class="ab" d="M195.713,617l-.083.688H183.317L183.23,617Z" transform="translate(-103.426 -348.272)"/><path class="ab" d="M195.753,619.24l-.087.688H183.593l-.083-.688Z" transform="translate(-103.584 -349.537)"/><path class="w" d="M1082.484,618s-1.49,6.934,5.135,7.753l.409-.771S1082.894,620.152,1082.484,618Z" transform="translate(-634.506 -364.39)"/><path class="w" d="M1092.783,620.392l-1.542.327-.152.035s-4.112-3.336-4.059-10.784a18.384,18.384,0,0,0,1.964,3.105C1090.623,615.231,1092.474,618.106,1092.783,620.392Z" transform="translate(-637.152 -359.857)"/><path class="w" d="M1096.687,617.782a.967.967,0,0,1-.828.109c-3.955-.923-2.613-13.811-2.613-13.811.218.1.435,1.742,1.367,3.859C1096.2,611.654,1097.958,616.85,1096.687,617.782Z" transform="translate(-640.538 -356.533)"/><path class="w" d="M1112.781,618s.257,6.934-6.368,7.753l-.414-.784S1112.372,620.152,1112.781,618Z" transform="translate(-647.861 -364.39)"/><path class="w" d="M1108.162,610a12.823,12.823,0,0,1-5.287,10.784l-.157-.035-1.537-.327c.3-2.287,2.178-5.161,3.785-7.317A16.756,16.756,0,0,1,1108.162,610Z" transform="translate(-645.14 -359.874)"/><path class="w" d="M1101.475,617.117a2.406,2.406,0,0,1-.871.675h0a1.694,1.694,0,0,1-.327.109c-.971.227-1.307-.475-1.254-1.668.092-2.121,1.424-5.8,2.613-8.558a10.693,10.693,0,0,1,2.483-3.585S1104.058,614.12,1101.475,617.117Z" transform="translate(-643.92 -356.538)"/><path class="w" d="M1099.323,593.7s-4.416,15.679-.614,18.023S1100.3,595.085,1099.323,593.7Z" transform="translate(-642.873 -350.674)"/><path class="f" d="M1082.484,618s-1.49,6.934,5.135,7.753l.409-.771S1082.894,620.152,1082.484,618Z" transform="translate(-634.506 -364.39)"/><path class="f" d="M1092.783,620.392l-1.542.327-.152.035s-4.112-3.336-4.059-10.784a18.384,18.384,0,0,0,1.964,3.105C1090.623,615.231,1092.474,618.106,1092.783,620.392Z" transform="translate(-637.152 -359.857)"/><path class="f" d="M1096.687,617.782a.967.967,0,0,1-.828.109c-3.955-.923-2.613-13.811-2.613-13.811.218.1.435,1.742,1.367,3.859C1096.2,611.654,1097.958,616.85,1096.687,617.782Z" transform="translate(-640.538 -356.533)"/><path class="f" d="M1112.781,618s.257,6.934-6.368,7.753l-.414-.784S1112.372,620.152,1112.781,618Z" transform="translate(-647.861 -364.39)"/><path class="f" d="M1108.162,610a12.823,12.823,0,0,1-5.287,10.784l-.157-.035-1.537-.327c.3-2.287,2.178-5.161,3.785-7.317A16.756,16.756,0,0,1,1108.162,610Z" transform="translate(-645.14 -359.874)"/><path class="f" d="M1101.475,617.117a2.406,2.406,0,0,1-.871.675h0a1.694,1.694,0,0,1-.327.109c-.971.227-1.307-.475-1.254-1.668.092-2.121,1.424-5.8,2.613-8.558a10.693,10.693,0,0,1,2.483-3.585S1104.058,614.12,1101.475,617.117Z" transform="translate(-643.92 -356.538)"/><path class="f" d="M1099.323,593.7s-4.416,15.679-.614,18.023S1100.3,595.085,1099.323,593.7Z" transform="translate(-642.873 -350.674)"/><path class="w" d="M1082.621,618s-.871,6.934,5.749,7.753l.41-.771S1083.03,620.152,1082.621,618Z" transform="translate(-634.643 -364.39)"/><path class="w" d="M1093.38,620.409l-1.542.327-.152.035S1086.96,617.435,1087,610c0,0,1.211,1.307,2.578,3.105C1091.22,615.248,1093.071,618.123,1093.38,620.409Z" transform="translate(-637.136 -359.874)"/><path class="f" d="M1096.739,624.417l-1.542.327c-1.459-1.28-2.038-4.625-2.247-7.644C1094.579,619.256,1096.43,622.13,1096.739,624.417Z" transform="translate(-640.495 -363.882)"/><path class="w" d="M1097.516,617.782a.975.975,0,0,1-.832.109c-3.955-.923-3.232-13.811-3.232-13.811a17.879,17.879,0,0,1,1.982,3.859C1097.033,611.654,1098.784,616.85,1097.516,617.782Z" transform="translate(-640.749 -356.533)"/><path class="w" d="M1113.588,618s.871,6.934-5.749,7.753l-.409-.771S1113.179,620.152,1113.588,618Z" transform="translate(-648.668 -364.39)"/><path class="w" d="M1108.958,610c.052,7.448-4.673,10.784-4.673,10.784l-.152-.035-1.542-.327c.3-2.287,2.178-5.161,3.789-7.317C1107.747,611.307,1108.958,610,1108.958,610Z" transform="translate(-645.936 -359.874)"/><path class="f" d="M1106.379,617.1c-.2,2.814-.714,5.91-1.964,7.356a2.223,2.223,0,0,1-.283.287l-1.542-.327C1102.895,622.13,1104.75,619.256,1106.379,617.1Z" transform="translate(-645.936 -363.882)"/><path class="w" d="M1102.886,617.117a2.355,2.355,0,0,1-.871.675h0a1.74,1.74,0,0,1-.322.109c-.976.227-1.307-.475-1.259-1.668.1-2.121,1.429-5.8,2.613-8.558a16.749,16.749,0,0,1,1.868-3.585S1105.469,614.12,1102.886,617.117Z" transform="translate(-644.716 -356.538)"/><path class="f" d="M1099.848,622.783a1.045,1.045,0,0,1-.627-.2c-1.86-1.159-1.9-5.505-1.455-9.643C1099.365,616.655,1101.116,621.851,1099.848,622.783Z" transform="translate(-643.081 -361.534)"/><path class="f" d="M1102.892,621.762c-.213.466-.5.71-.871.675h0a1.173,1.173,0,0,1-.527-.2,2.814,2.814,0,0,1-1.054-1.359c.1-2.121,1.429-5.8,2.613-8.558C1103.48,616.14,1103.624,620.19,1102.892,621.762Z" transform="translate(-644.722 -361.184)"/><path class="w" d="M1099.932,593.7s-3.8,15.679,0,18.023S1100.908,595.085,1099.932,593.7Z" transform="translate(-643.483 -350.674)"/><path class="ac" d="M1044.254,597.61H1028.44v2.618h2.413l.061.309.967,5.083h9.194l.967-5.083.057-.309h2.156Z" transform="translate(-580.514 -337.328)"/><path class="f" d="M1044.254,597.61H1028.44v2.618h2.413l.061.309.967,5.083h9.194l.967-5.083.057-.309h2.156Z" transform="translate(-580.514 -337.328)"/><path class="ac" d="M1046.579,601.14l-.266,1.389-.967,5.083h-9.194l-.967-5.083-.266-1.389Z" transform="translate(-584.172 -339.32)"/><path class="f" d="M1046.579,601.14l-.266,1.389h-11.128l-.266-1.389Z" transform="translate(-584.172 -339.32)"/><rect class="ac" width="15.814" height="2.618" transform="translate(448.54 260.282)"/><path class="w" d="M158.279,731.96a7.6,7.6,0,0,0-.993,1.873c-.061.161-.122.349-.183.527a1.909,1.909,0,0,0-.344-.122,4.8,4.8,0,0,0-1.555-.131c0-.2.026-.436.03-.64.065-2.3-.2-5.492-2.4-4.138-2.1,1.307-.6,3.484.753,4.878.118.122.235.235.348.344-1.237.871-1.472,2.931-1.677,5.07s-2.021,4.477-3.227,5.806c-.122.135-.231.257-.34.37a4.421,4.421,0,0,0-3.506-.9c-.048-.187-.1-.383-.161-.588-.976-3.523-3-9.625-5.584-10.963l.34-.436c1.1-1.433,2.334-3.567.51-4.111s-1.99,1.847-1.89,3.641q.026.34.052.64a2.67,2.67,0,0,0-1.908.932l-.283-.335c-1.481-1.742-4.194-4.517-5.017-2.422-.767,1.951,1.625,4.486,3.306,5.954l.1.091c-1.128,4.578,3.8,8.31,6.45,9.943l.344.209c-3.659,4.312-5.919,12.4-5.919,12.4l10.244,1.829s6.794-5.862,5.923-11.368h.07c6.79-1.359,8.332-8.6,7.273-12.9l.122-.048a7.687,7.687,0,0,0,3.145-2.378C164.211,732.352,160.238,729.373,158.279,731.96Z" transform="translate(-97.569 -426.887)"/><path class="f" d="M158.279,731.96a7.6,7.6,0,0,0-.993,1.873c-.061.161-.122.349-.183.527a1.909,1.909,0,0,0-.344-.122,4.8,4.8,0,0,0-1.555-.131c0-.2.026-.436.03-.64.065-2.3-.2-5.492-2.4-4.138-2.1,1.307-.6,3.484.753,4.878.118.122.235.235.348.344-1.237.871-1.472,2.931-1.677,5.07s-2.021,4.477-3.227,5.806c-.122.135-.231.257-.34.37a4.421,4.421,0,0,0-3.506-.9c-.048-.187-.1-.383-.161-.588-.976-3.523-3-9.625-5.584-10.963l.34-.436c1.1-1.433,2.334-3.567.51-4.111s-1.99,1.847-1.89,3.641q.026.34.052.64a2.67,2.67,0,0,0-1.908.932l-.283-.335c-1.481-1.742-4.194-4.517-5.017-2.422-.767,1.951,1.625,4.486,3.306,5.954l.1.091c-1.128,4.578,3.8,8.31,6.45,9.943l.344.209c-3.659,4.312-5.919,12.4-5.919,12.4l10.244,1.829s6.794-5.862,5.923-11.368h.07c6.79-1.359,8.332-8.6,7.273-12.9l.122-.048a7.687,7.687,0,0,0,3.145-2.378C164.211,732.352,160.238,729.373,158.279,731.96Z" transform="translate(-97.569 -426.887)"/><path class="w" d="M138.7,737.256l-1.2,3.484s-.666-.47-1.507-1.211c-1.681-1.468-4.072-4-3.306-5.954.823-2.095,3.537.671,5.017,2.422C138.3,736.694,138.7,737.256,138.7,737.256Z" transform="translate(-98.382 -429.203)"/><path class="w" d="M150.663,732.922A16.583,16.583,0,0,1,149.5,734.3a18.387,18.387,0,0,1-.213-1.847c-.1-1.794.091-4.177,1.89-3.641S151.76,731.489,150.663,732.922Z" transform="translate(-107.819 -426.895)"/><path class="w" d="M183.544,733.837c-.035,1.154-.148,2.078-.148,2.078a15.2,15.2,0,0,1-1.494-1.337c-1.355-1.407-2.853-3.576-.753-4.878C183.317,728.34,183.587,731.541,183.544,733.837Z" transform="translate(-125.229 -427.256)"/><path class="w" d="M196.93,737.889a7.687,7.687,0,0,1-3.145,2.378,9.418,9.418,0,0,1-1.054.383l-1.411-1.982a14.013,14.013,0,0,1,.584-1.925,7.6,7.6,0,0,1,.993-1.873C194.848,732.284,198.829,735.263,196.93,737.889Z" transform="translate(-131.56 -429.797)"/><path class="f" d="M142.182,740.11c.6.7.993,1.237.993,1.237l-1.2,3.484s-.666-.47-1.507-1.211a6.839,6.839,0,0,1,1.35-3.079C141.938,740.4,142.064,740.249,142.182,740.11Z" transform="translate(-102.857 -433.316)"/><path class="f" d="M150.691,737.74a16.589,16.589,0,0,1-1.167,1.376,18.374,18.374,0,0,1-.213-1.847A2.409,2.409,0,0,1,150.691,737.74Z" transform="translate(-107.847 -431.713)"/><path class="w" d="M151.5,752.474l-2.979,1.307s-.649-.314-1.585-.9c-3.132-1.925-9.425-6.773-5.226-12.487s7.74,4.534,9.146,9.547C151.276,751.468,151.5,752.474,151.5,752.474Z" transform="translate(-102.765 -432.527)"/><path class="f" d="M184.18,740.36a2.448,2.448,0,0,1,1.642-.74c-.035,1.154-.148,2.078-.148,2.078A15.2,15.2,0,0,1,184.18,740.36Z" transform="translate(-127.529 -433.04)"/><path class="f" d="M193.805,743.984a9.406,9.406,0,0,1-1.054.383l-1.411-1.982a14.015,14.015,0,0,1,.584-1.925A5.14,5.14,0,0,1,193.805,743.984Z" transform="translate(-131.571 -433.514)"/><path class="w" d="M172.237,757.25c-.161.035-.331.065-.5.091-9.987,1.516-3.293-3.872-3.293-3.872s.436-.436,1.058-1.093c1.206-1.328,3.018-3.654,3.227-5.806.314-3.236.675-6.272,4.495-5.383C180.974,742.067,181.693,755.355,172.237,757.25Z" transform="translate(-117.407 -433.836)"/><rect class="ad" width="19.081" height="5.017" transform="translate(35.562 348.279)"/><rect class="ad" width="24.93" height="17.509" transform="translate(32.53 331.972)"/><rect class="f" width="19.081" height="5.017" transform="translate(35.562 348.279)"/><rect class="f" width="24.93" height="17.509" transform="translate(32.53 331.972)"/><rect class="ad" width="19.081" height="5.017" transform="translate(36.816 348.279)"/><path class="f" d="M159.44,764.51c.436,1.5.645,2.526.645,2.526l-2.979,1.307s-.649-.314-1.585-.9A7.647,7.647,0,0,1,159.44,764.51Z" transform="translate(-111.352 -447.089)"/><path class="f" d="M172.237,771.954c-.161.035-.331.065-.5.091-9.987,1.516-3.293-3.872-3.293-3.872s.436-.436,1.058-1.093A6.613,6.613,0,0,1,172.237,771.954Z" transform="translate(-117.407 -448.54)"/><path class="w" d="M142.72,780.711s5.592-20.035,13.436-13.855-3.193,15.679-3.193,15.679Z" transform="translate(-104.127 -447.745)"/><circle class="f" cx="0.627" cy="0.627" r="0.627" transform="translate(40.788 310.383)"/><circle class="f" cx="0.627" cy="0.627" r="0.627" transform="translate(40.736 313.309)"/><circle class="f" cx="0.627" cy="0.627" r="0.627" transform="translate(58.928 310.957)"/><circle class="f" cx="0.627" cy="0.627" r="0.627" transform="translate(44.294 325.962)"/><circle class="f" cx="0.627" cy="0.627" r="0.627" transform="translate(57.622 315.818)"/><circle class="f" cx="0.627" cy="0.627" r="0.627" transform="translate(51.141 322.303)"/><circle class="f" cx="0.627" cy="0.627" r="0.627" transform="translate(42.931 311.637)"/><circle class="f" cx="0.627" cy="0.627" r="0.627" transform="translate(57.204 312.839)"/><circle class="f" cx="0.627" cy="0.627" r="0.627" transform="translate(55.061 317.7)"/><circle class="f" cx="0.627" cy="0.627" r="0.627" transform="translate(48.475 325.491)"/><circle class="f" cx="0.627" cy="0.627" r="0.627" transform="translate(47.117 322.408)"/><circle class="f" cx="0.627" cy="0.627" r="0.627" transform="translate(43.872 315.452)"/><rect class="f" width="19.081" height="1.834" transform="translate(36.816 348.279)"/><rect class="ad" width="24.93" height="17.509" transform="translate(33.785 331.972)"/><circle class="f" cx="0.627" cy="0.627" r="0.627" transform="translate(49.312 328.314)"/><circle class="f" cx="0.627" cy="0.627" r="0.627" transform="translate(45.549 329.098)"/><circle class="a" cx="4.556" cy="4.556" r="4.556" transform="translate(17.221 18.092)"/><circle class="a" cx="6.098" cy="6.098" r="6.098" transform="translate(453.209 159.882)"/><circle class="a" cx="4.451" cy="4.451" r="4.451" transform="translate(466.61 148.462)"/><ellipse class="a" cx="5.5" cy="6" rx="5.5" ry="6" transform="translate(24)"/><circle class="a" cx="6" cy="6" r="6" transform="translate(0 28)"/></svg>